<svg version="1.1" baseProfile="full" xmlns="http://www.w3.org/2000/svg"  width="457" height="86">
    <defs id="SvgjsDefs1330"></defs>
    <g id="SvgjsG1331" featurekey="root" fill="#ffffff" transform="matrix(1,0,0,1,NaN,NaN)"></g>
    <g id="SvgjsG1332" featurekey="symbol1" fill="#343a93" transform="matrix(0.7777777777777778,0,0,0.7777777777777778,6.111111111111111,3.9411111407809782)">
        <g>
            <path fill="none" d="M72.851,58.521c-2.828-8.258-9.91-14.361-18.484-15.927c-2.916-0.532-5.82-0.532-8.735,0   c-8.574,1.566-15.656,7.669-18.484,15.927c0,0,0,0.001-0.001,0.001c-0.865,2.525-1.304,5.158-1.304,7.826   c0,13.319,10.836,24.155,24.155,24.155s24.155-10.836,24.155-24.155c0-2.667-0.438-5.3-1.303-7.825   C72.852,58.523,72.852,58.522,72.851,58.521z"></path>
            <path fill="none" d="M44.375,41.108c-0.064-0.214-0.11-0.431-0.169-0.646c-0.073-0.266-0.146-0.532-0.21-0.801   c-0.096-0.401-0.177-0.805-0.254-1.211c-0.049-0.258-0.102-0.514-0.143-0.773c-0.07-0.445-0.12-0.893-0.167-1.342   c-0.023-0.221-0.056-0.441-0.073-0.663c-0.052-0.671-0.083-1.345-0.083-2.021c0-0.745,0.034-1.487,0.098-2.225   c0.022-0.249,0.066-0.494,0.095-0.742c0.057-0.487,0.109-0.974,0.193-1.456c0.051-0.293,0.125-0.579,0.186-0.869   c0.09-0.431,0.175-0.863,0.287-1.288c0.081-0.307,0.184-0.607,0.276-0.91c0.122-0.401,0.238-0.802,0.378-1.196   c0.11-0.308,0.24-0.608,0.362-0.912c0.152-0.379,0.3-0.76,0.469-1.131c0.138-0.303,0.294-0.597,0.445-0.895   c0.182-0.36,0.36-0.721,0.559-1.073c0.166-0.294,0.347-0.578,0.525-0.866c0.211-0.342,0.42-0.683,0.647-1.015   c0.192-0.281,0.398-0.553,0.601-0.827c0.165-0.222,0.315-0.453,0.487-0.67c-4.589-5.143-11.117-8.078-18.022-8.078   c-13.32,0-24.156,10.836-24.156,24.155c0,11.428,7.981,21.245,19.08,23.614C28.855,49.084,35.865,42.996,44.375,41.108z"></path>
            <path fill="none" d="M69.138,9.496c-7.14,0-13.878,3.139-18.485,8.612c-3.657,4.344-5.671,9.864-5.671,15.543   c0,0.638,0.029,1.274,0.079,1.908c0.017,0.211,0.049,0.421,0.071,0.631c0.044,0.42,0.09,0.841,0.156,1.258   c0.04,0.25,0.094,0.498,0.142,0.746c0.072,0.375,0.145,0.75,0.235,1.121c0.063,0.261,0.138,0.52,0.21,0.779   c0.065,0.233,0.135,0.464,0.207,0.695c2.87-0.439,5.727-0.397,8.593,0.126c8.935,1.633,16.358,7.866,19.539,16.35   c11.099-2.369,19.08-12.186,19.08-23.614C93.293,20.332,82.457,9.496,69.138,9.496z"></path>
            <path d="M95,33.651C95,19.391,83.399,7.79,69.138,7.79c-7.317,0-14.233,3.084-19.138,8.486C45.096,10.874,38.18,7.79,30.862,7.79   C16.602,7.79,5,19.391,5,33.651c0,12.175,8.472,22.62,20.266,25.222c-0.734,2.427-1.128,4.934-1.128,7.476   C24.138,80.609,35.74,92.21,50,92.21c14.26,0,25.862-11.601,25.862-25.862c0-2.541-0.393-5.048-1.127-7.476   C86.528,56.271,95,45.826,95,33.651z M6.707,33.651c0-13.319,10.836-24.155,24.156-24.155c6.905,0,13.433,2.935,18.022,8.078   c-0.172,0.217-0.322,0.448-0.487,0.67c-0.204,0.274-0.409,0.546-0.601,0.827c-0.227,0.332-0.436,0.673-0.647,1.015   c-0.177,0.288-0.359,0.572-0.525,0.866c-0.198,0.352-0.377,0.713-0.559,1.073c-0.15,0.298-0.306,0.592-0.445,0.895   c-0.17,0.372-0.318,0.752-0.469,1.131c-0.122,0.304-0.252,0.604-0.362,0.912c-0.141,0.394-0.257,0.796-0.378,1.196   c-0.092,0.304-0.195,0.603-0.276,0.91c-0.112,0.425-0.197,0.857-0.287,1.288c-0.061,0.29-0.135,0.577-0.186,0.869   c-0.084,0.482-0.137,0.969-0.193,1.456c-0.029,0.248-0.073,0.493-0.095,0.742c-0.064,0.738-0.098,1.48-0.098,2.225   c0,0.676,0.031,1.35,0.083,2.021c0.017,0.222,0.05,0.442,0.073,0.663c0.047,0.449,0.097,0.897,0.167,1.342   c0.041,0.259,0.094,0.516,0.143,0.773c0.077,0.405,0.157,0.809,0.254,1.211c0.064,0.268,0.137,0.534,0.21,0.801   c0.059,0.215,0.105,0.432,0.169,0.646c-8.51,1.888-15.52,7.976-18.588,16.157C14.687,54.896,6.707,45.079,6.707,33.651z M50,90.504   c-13.319,0-24.155-10.836-24.155-24.155c0-2.668,0.439-5.301,1.304-7.826c0,0,0-0.001,0.001-0.001   c2.827-8.257,9.91-14.36,18.484-15.927c2.915-0.532,5.819-0.532,8.735,0c8.573,1.566,15.656,7.669,18.484,15.927   c0,0.001,0.001,0.001,0.001,0.002c0.865,2.525,1.303,5.158,1.303,7.825C74.155,79.668,63.319,90.504,50,90.504z M74.214,57.265   c-3.182-8.484-10.604-14.717-19.539-16.35c-2.866-0.523-5.722-0.565-8.593-0.126c-0.072-0.231-0.142-0.462-0.207-0.695   c-0.072-0.259-0.147-0.518-0.21-0.779c-0.09-0.372-0.163-0.746-0.235-1.121c-0.048-0.249-0.102-0.496-0.142-0.746   c-0.066-0.417-0.112-0.838-0.156-1.258c-0.022-0.211-0.055-0.42-0.071-0.631c-0.05-0.633-0.079-1.269-0.079-1.908   c0-5.678,2.014-11.199,5.671-15.543c4.607-5.473,11.345-8.612,18.485-8.612c13.319,0,24.155,10.836,24.155,24.155   C93.293,45.079,85.313,54.896,74.214,57.265z"></path>
        </g>
    </g>
    <g id="SvgjsG1333" featurekey="text1" fill="#513dab" transform="matrix(3.382186464041916,0,0,3.382186464041916,95.94137527549839,-21.092432848493438)">
        <path d="M10.42 14.68 l0 8.54 c0 2.54 -2.06 4.6 -4.62 4.6 c-0.72 0 -1.4 -0.18 -2.04 -0.46 c-0.2 -0.14 -0.32 -0.42 -0.2 -0.64 c0.12 -0.26 0.4 -0.36 0.64 -0.22 c0.5 0.24 1 0.36 1.6 0.36 c2.04 0 3.66 -1.62 3.66 -3.64 l0 -1.2 c-0.82 1.18 -2.16 1.92 -3.66 1.92 c-2.56 0 -4.6 -2.18 -4.6 -4.88 c0 -2.64 2.04 -4.86 4.6 -4.86 c1.5 0 2.84 0.76 3.66 1.92 l0 -1.44 l0 0 c0 -0.26 0.22 -0.48 0.5 -0.48 c0.24 0 0.46 0.22 0.46 0.48 z M5.8 23 c2.02 0 3.66 -1.74 3.66 -3.94 c0 -2.18 -1.64 -3.9 -3.66 -3.9 c-2 0 -3.64 1.72 -3.64 3.9 c0 2.2 1.64 3.94 3.64 3.94 z M15.06 23.52 l0 -8.82 c0 -0.28 0.22 -0.48 0.5 -0.48 c0.24 0 0.46 0.2 0.46 0.48 l0 2.16 c0.04 -0.08 0.08 -0.16 0.14 -0.24 c0.74 -1.16 2.04 -2.4 3.92 -2.4 c0.26 0 0.48 0.2 0.48 0.48 c0 0.26 -0.22 0.48 -0.48 0.48 c-1.28 0 -2.16 0.72 -2.84 1.6 c-0.66 0.88 -1.04 1.88 -1.18 2.28 c-0.04 0.08 -0.04 0.12 -0.04 0.16 l0 4.3 c0 0.28 -0.22 0.48 -0.46 0.48 c-0.28 0 -0.5 -0.2 -0.5 -0.48 z M31.58 14.2 c0.26 0 0.48 0.2 0.48 0.48 l0 8.84 c0 0.26 -0.22 0.48 -0.48 0.48 s-0.48 -0.22 -0.48 -0.48 l0 -1.46 c-0.84 1.16 -2.18 1.94 -3.68 1.94 c-2.58 0 -4.64 -2.22 -4.64 -4.9 s2.06 -4.9 4.64 -4.9 c1.5 0 2.84 0.76 3.68 1.92 l0 -1.44 c0 -0.28 0.22 -0.48 0.48 -0.48 z M27.42 23.04 c2.02 0 3.68 -1.74 3.68 -3.94 s-1.66 -3.96 -3.68 -3.96 c-2 0 -3.68 1.76 -3.68 3.96 s1.68 3.94 3.68 3.94 z M50.24 23.54 l0 -5.34 c-0.04 -1.66 -1.36 -3.04 -3.04 -3.04 c-1.66 0 -3.02 1.38 -3.02 3.04 l0 5.34 l0 0.06 c0 0.02 -0.02 0.04 -0.02 0.04 l0 0.04 c-0.04 0.12 -0.14 0.2 -0.24 0.26 c-0.08 0.04 -0.16 0.06 -0.24 0.06 l-0.06 0 l-0.04 0 c-0.02 0 -0.04 -0.02 -0.04 -0.02 c-0.04 0 -0.08 -0.04 -0.12 -0.06 c-0.02 0 -0.04 -0.02 -0.06 -0.04 l-0.06 -0.06 c-0.02 -0.02 -0.02 -0.04 -0.04 -0.04 c0 -0.02 0 -0.02 -0.02 -0.04 c0 0 0 -0.02 -0.02 -0.04 c0 -0.02 0 -0.04 -0.02 -0.06 l0 -0.06 l0 -0.04 l0 -5.34 c0 -1.66 -1.34 -3.04 -3.02 -3.04 s-3.02 1.38 -3.02 3.04 l0 5.34 c0 0.16 -0.08 0.3 -0.22 0.38 c-0.02 0.02 -0.08 0.06 -0.12 0.06 c-0.02 0.02 -0.04 0.02 -0.08 0.02 l-0.06 0 l-0.06 0 c-0.18 -0.02 -0.34 -0.18 -0.4 -0.36 l0 -0.1 l0 -5.34 l0 -0.16 l0 -3.36 c0 -0.26 0.22 -0.46 0.46 -0.46 c0.28 0 0.48 0.2 0.48 0.46 l0 0.94 c0.72 -0.86 1.8 -1.4 3.02 -1.4 c1.52 0 2.82 0.84 3.5 2.08 c0.7 -1.24 2.02 -2.08 3.52 -2.08 c2.2 0 3.98 1.78 3.98 3.98 l0 5.34 c0 0.24 -0.2 0.46 -0.48 0.46 c-0.26 0 -0.46 -0.22 -0.46 -0.46 z M62.98 14.2 c0.26 0 0.48 0.2 0.48 0.48 l0 8.84 c0 0.26 -0.22 0.48 -0.48 0.48 s-0.48 -0.22 -0.48 -0.48 l0 -1.46 c-0.84 1.16 -2.18 1.94 -3.68 1.94 c-2.58 0 -4.64 -2.22 -4.64 -4.9 s2.06 -4.9 4.64 -4.9 c1.5 0 2.84 0.76 3.68 1.92 l0 -1.44 c0 -0.28 0.22 -0.48 0.48 -0.48 z M58.81999999999999 23.04 c2.02 0 3.68 -1.74 3.68 -3.94 s-1.66 -3.96 -3.68 -3.96 c-2 0 -3.68 1.76 -3.68 3.96 s1.68 3.94 3.68 3.94 z M70.55999999999999 14.2 c0.24 0 0.48 0.24 0.48 0.48 s-0.24 0.48 -0.48 0.48 l-1.26 0 l0 7.14 c0 0.48 0.48 0.72 0.72 0.72 s0.5 0.26 0.5 0.5 s-0.26 0.48 -0.5 0.48 c-0.98 0 -1.72 -0.72 -1.72 -1.7 l0 -7.14 l-1.22 0 c-0.48 0 -0.48 -0.24 -0.48 -0.48 s0 -0.48 0.48 -0.48 l1.22 0 l0 -3.64 c0 -0.24 0.24 -0.48 0.48 -0.48 c0.26 0 0.52 0.24 0.52 0.48 l0 3.64 l1.26 0 z M79.67999999999999 24 c-2.64 0 -4.76 -2.2 -4.76 -4.88 c0 -2.72 2.12 -4.92 4.76 -4.92 c2.52 0 4.52 2 4.72 4.56 l0 0.02 l0 0.06 c0 0.26 -0.22 0.44 -0.48 0.44 l-8.04 0 c0.1 2.14 1.78 3.76 3.8 3.76 c1.3 0 2.5 -0.68 3.16 -1.78 c0.14 -0.24 0.44 -0.28 0.64 -0.16 c0.22 0.16 0.3 0.44 0.16 0.68 c-0.84 1.34 -2.3 2.22 -3.96 2.22 z M79.67999999999999 15.16 c-1.84 0 -3.38 1.32 -3.74 3.18 l7.42 0 c-0.32 -1.84 -1.88 -3.18 -3.68 -3.18 z M95.53999999999999 14.2 c0.26 0 0.48 0.2 0.48 0.48 l0 8.84 c0 0.26 -0.22 0.48 -0.48 0.48 s-0.48 -0.22 -0.48 -0.48 l0 -1.46 c-0.84 1.16 -2.18 1.94 -3.68 1.94 c-2.58 0 -4.64 -2.22 -4.64 -4.9 s2.06 -4.9 4.64 -4.9 c1.5 0 2.84 0.76 3.68 1.92 l0 -1.44 c0 -0.28 0.22 -0.48 0.48 -0.48 z M91.38 23.04 c2.02 0 3.68 -1.74 3.68 -3.94 s-1.66 -3.96 -3.68 -3.96 c-2 0 -3.68 1.76 -3.68 3.96 s1.68 3.94 3.68 3.94 z M99.55999999999999 22.6 c-0.2 -0.18 -0.22 -0.44 -0.06 -0.64 l0 0 c0.16 -0.2 0.46 -0.24 0.68 -0.06 l0 0 c0.68 0.5 1.76 1.14 3 1.14 l0 0 c0.76 0 1.42 -0.24 1.86 -0.6 l0 0 c0.48 -0.32 0.74 -0.76 0.74 -1.2 l0 0 c-0.02 -0.46 -0.2 -0.78 -0.7 -1.2 l0 0 c-0.42 -0.32 -1.12 -0.56 -2.08 -0.72 l0 0 l-0.04 -0.02 c-0.88 -0.16 -1.66 -0.36 -2.22 -0.76 l0 0 c-0.62 -0.36 -1.06 -1 -1.06 -1.76 l0 0 c0 -0.78 0.44 -1.46 1.06 -1.92 l0 0 c0.58 -0.4 1.4 -0.66 2.4 -0.66 l0 0 c1.26 0 2.16 0.58 2.92 1.06 l0 0 c0.22 0.16 0.28 0.46 0.14 0.68 l0 0 c-0.14 0.22 -0.44 0.28 -0.66 0.14 l0 0 c-0.72 -0.48 -1.44 -0.98 -2.4 -0.98 l0 0 c-0.8 0 -1.44 0.22 -1.86 0.56 l0 0 c-0.4 0.32 -0.62 0.72 -0.62 1.12 l0 0 c0 0.4 0.18 0.68 0.56 0.98 l0 0 c0.44 0.3 1.1 0.54 2 0.68 l0 0 l0.04 0 c0.94 0.14 1.7 0.42 2.38 0.8 l0 0 c0.64 0.42 1.1 1.18 1.1 2 l0 0 c0 0.82 -0.46 1.48 -1.12 1.98 l0 0 c-0.68 0.5 -1.48 0.78 -2.44 0.78 l0 0 c-1.58 -0.02 -2.82 -0.76 -3.62 -1.4 l0 0 z"></path>
    </g>
</svg>