<svg version="1.1" baseProfile="full" xmlns="http://www.w3.org/2000/svg"  width="357" height="80">
    <defs id="SvgjsDefs1338"></defs>
    <g id="SvgjsG1339" featurekey="root" fill="#ffffff" transform="matrix(1,0,0,1,NaN,NaN)"></g>
    <g id="SvgjsG1340" featurekey="text1" fill="#513dab" transform="matrix(3.382186464041916,0,0,3.382186464041916,-4.058624724501608,-24.092432848493438)">
        <path d="M10.42 14.68 l0 8.54 c0 2.54 -2.06 4.6 -4.62 4.6 c-0.72 0 -1.4 -0.18 -2.04 -0.46 c-0.2 -0.14 -0.32 -0.42 -0.2 -0.64 c0.12 -0.26 0.4 -0.36 0.64 -0.22 c0.5 0.24 1 0.36 1.6 0.36 c2.04 0 3.66 -1.62 3.66 -3.64 l0 -1.2 c-0.82 1.18 -2.16 1.92 -3.66 1.92 c-2.56 0 -4.6 -2.18 -4.6 -4.88 c0 -2.64 2.04 -4.86 4.6 -4.86 c1.5 0 2.84 0.76 3.66 1.92 l0 -1.44 l0 0 c0 -0.26 0.22 -0.48 0.5 -0.48 c0.24 0 0.46 0.22 0.46 0.48 z M5.8 23 c2.02 0 3.66 -1.74 3.66 -3.94 c0 -2.18 -1.64 -3.9 -3.66 -3.9 c-2 0 -3.64 1.72 -3.64 3.9 c0 2.2 1.64 3.94 3.64 3.94 z M15.06 23.52 l0 -8.82 c0 -0.28 0.22 -0.48 0.5 -0.48 c0.24 0 0.46 0.2 0.46 0.48 l0 2.16 c0.04 -0.08 0.08 -0.16 0.14 -0.24 c0.74 -1.16 2.04 -2.4 3.92 -2.4 c0.26 0 0.48 0.2 0.48 0.48 c0 0.26 -0.22 0.48 -0.48 0.48 c-1.28 0 -2.16 0.72 -2.84 1.6 c-0.66 0.88 -1.04 1.88 -1.18 2.28 c-0.04 0.08 -0.04 0.12 -0.04 0.16 l0 4.3 c0 0.28 -0.22 0.48 -0.46 0.48 c-0.28 0 -0.5 -0.2 -0.5 -0.48 z M31.58 14.2 c0.26 0 0.48 0.2 0.48 0.48 l0 8.84 c0 0.26 -0.22 0.48 -0.48 0.48 s-0.48 -0.22 -0.48 -0.48 l0 -1.46 c-0.84 1.16 -2.18 1.94 -3.68 1.94 c-2.58 0 -4.64 -2.22 -4.64 -4.9 s2.06 -4.9 4.64 -4.9 c1.5 0 2.84 0.76 3.68 1.92 l0 -1.44 c0 -0.28 0.22 -0.48 0.48 -0.48 z M27.42 23.04 c2.02 0 3.68 -1.74 3.68 -3.94 s-1.66 -3.96 -3.68 -3.96 c-2 0 -3.68 1.76 -3.68 3.96 s1.68 3.94 3.68 3.94 z M50.24 23.54 l0 -5.34 c-0.04 -1.66 -1.36 -3.04 -3.04 -3.04 c-1.66 0 -3.02 1.38 -3.02 3.04 l0 5.34 l0 0.06 c0 0.02 -0.02 0.04 -0.02 0.04 l0 0.04 c-0.04 0.12 -0.14 0.2 -0.24 0.26 c-0.08 0.04 -0.16 0.06 -0.24 0.06 l-0.06 0 l-0.04 0 c-0.02 0 -0.04 -0.02 -0.04 -0.02 c-0.04 0 -0.08 -0.04 -0.12 -0.06 c-0.02 0 -0.04 -0.02 -0.06 -0.04 l-0.06 -0.06 c-0.02 -0.02 -0.02 -0.04 -0.04 -0.04 c0 -0.02 0 -0.02 -0.02 -0.04 c0 0 0 -0.02 -0.02 -0.04 c0 -0.02 0 -0.04 -0.02 -0.06 l0 -0.06 l0 -0.04 l0 -5.34 c0 -1.66 -1.34 -3.04 -3.02 -3.04 s-3.02 1.38 -3.02 3.04 l0 5.34 c0 0.16 -0.08 0.3 -0.22 0.38 c-0.02 0.02 -0.08 0.06 -0.12 0.06 c-0.02 0.02 -0.04 0.02 -0.08 0.02 l-0.06 0 l-0.06 0 c-0.18 -0.02 -0.34 -0.18 -0.4 -0.36 l0 -0.1 l0 -5.34 l0 -0.16 l0 -3.36 c0 -0.26 0.22 -0.46 0.46 -0.46 c0.28 0 0.48 0.2 0.48 0.46 l0 0.94 c0.72 -0.86 1.8 -1.4 3.02 -1.4 c1.52 0 2.82 0.84 3.5 2.08 c0.7 -1.24 2.02 -2.08 3.52 -2.08 c2.2 0 3.98 1.78 3.98 3.98 l0 5.34 c0 0.24 -0.2 0.46 -0.48 0.46 c-0.26 0 -0.46 -0.22 -0.46 -0.46 z M62.98 14.2 c0.26 0 0.48 0.2 0.48 0.48 l0 8.84 c0 0.26 -0.22 0.48 -0.48 0.48 s-0.48 -0.22 -0.48 -0.48 l0 -1.46 c-0.84 1.16 -2.18 1.94 -3.68 1.94 c-2.58 0 -4.64 -2.22 -4.64 -4.9 s2.06 -4.9 4.64 -4.9 c1.5 0 2.84 0.76 3.68 1.92 l0 -1.44 c0 -0.28 0.22 -0.48 0.48 -0.48 z M58.81999999999999 23.04 c2.02 0 3.68 -1.74 3.68 -3.94 s-1.66 -3.96 -3.68 -3.96 c-2 0 -3.68 1.76 -3.68 3.96 s1.68 3.94 3.68 3.94 z M70.55999999999999 14.2 c0.24 0 0.48 0.24 0.48 0.48 s-0.24 0.48 -0.48 0.48 l-1.26 0 l0 7.14 c0 0.48 0.48 0.72 0.72 0.72 s0.5 0.26 0.5 0.5 s-0.26 0.48 -0.5 0.48 c-0.98 0 -1.72 -0.72 -1.72 -1.7 l0 -7.14 l-1.22 0 c-0.48 0 -0.48 -0.24 -0.48 -0.48 s0 -0.48 0.48 -0.48 l1.22 0 l0 -3.64 c0 -0.24 0.24 -0.48 0.48 -0.48 c0.26 0 0.52 0.24 0.52 0.48 l0 3.64 l1.26 0 z M79.67999999999999 24 c-2.64 0 -4.76 -2.2 -4.76 -4.88 c0 -2.72 2.12 -4.92 4.76 -4.92 c2.52 0 4.52 2 4.72 4.56 l0 0.02 l0 0.06 c0 0.26 -0.22 0.44 -0.48 0.44 l-8.04 0 c0.1 2.14 1.78 3.76 3.8 3.76 c1.3 0 2.5 -0.68 3.16 -1.78 c0.14 -0.24 0.44 -0.28 0.64 -0.16 c0.22 0.16 0.3 0.44 0.16 0.68 c-0.84 1.34 -2.3 2.22 -3.96 2.22 z M79.67999999999999 15.16 c-1.84 0 -3.38 1.32 -3.74 3.18 l7.42 0 c-0.32 -1.84 -1.88 -3.18 -3.68 -3.18 z M95.53999999999999 14.2 c0.26 0 0.48 0.2 0.48 0.48 l0 8.84 c0 0.26 -0.22 0.48 -0.48 0.48 s-0.48 -0.22 -0.48 -0.48 l0 -1.46 c-0.84 1.16 -2.18 1.94 -3.68 1.94 c-2.58 0 -4.64 -2.22 -4.64 -4.9 s2.06 -4.9 4.64 -4.9 c1.5 0 2.84 0.76 3.68 1.92 l0 -1.44 c0 -0.28 0.22 -0.48 0.48 -0.48 z M91.38 23.04 c2.02 0 3.68 -1.74 3.68 -3.94 s-1.66 -3.96 -3.68 -3.96 c-2 0 -3.68 1.76 -3.68 3.96 s1.68 3.94 3.68 3.94 z M99.55999999999999 22.6 c-0.2 -0.18 -0.22 -0.44 -0.06 -0.64 l0 0 c0.16 -0.2 0.46 -0.24 0.68 -0.06 l0 0 c0.68 0.5 1.76 1.14 3 1.14 l0 0 c0.76 0 1.42 -0.24 1.86 -0.6 l0 0 c0.48 -0.32 0.74 -0.76 0.74 -1.2 l0 0 c-0.02 -0.46 -0.2 -0.78 -0.7 -1.2 l0 0 c-0.42 -0.32 -1.12 -0.56 -2.08 -0.72 l0 0 l-0.04 -0.02 c-0.88 -0.16 -1.66 -0.36 -2.22 -0.76 l0 0 c-0.62 -0.36 -1.06 -1 -1.06 -1.76 l0 0 c0 -0.78 0.44 -1.46 1.06 -1.92 l0 0 c0.58 -0.4 1.4 -0.66 2.4 -0.66 l0 0 c1.26 0 2.16 0.58 2.92 1.06 l0 0 c0.22 0.16 0.28 0.46 0.14 0.68 l0 0 c-0.14 0.22 -0.44 0.28 -0.66 0.14 l0 0 c-0.72 -0.48 -1.44 -0.98 -2.4 -0.98 l0 0 c-0.8 0 -1.44 0.22 -1.86 0.56 l0 0 c-0.4 0.32 -0.62 0.72 -0.62 1.12 l0 0 c0 0.4 0.18 0.68 0.56 0.98 l0 0 c0.44 0.3 1.1 0.54 2 0.68 l0 0 l0.04 0 c0.94 0.14 1.7 0.42 2.38 0.8 l0 0 c0.64 0.42 1.1 1.18 1.1 2 l0 0 c0 0.82 -0.46 1.48 -1.12 1.98 l0 0 c-0.68 0.5 -1.48 0.78 -2.44 0.78 l0 0 c-1.58 -0.02 -2.82 -0.76 -3.62 -1.4 l0 0 z"></path>
    </g>
</svg>