<svg version="1.1" baseProfile="full" xmlns="http://www.w3.org/2000/svg"  width="100" height="86">
    <defs id="SvgjsDefs1334"></defs>
    <g id="SvgjsG1335" featurekey="root" fill="#ffffff" transform="matrix(1,0,0,1,NaN,NaN)"></g>
    <g id="SvgjsG1336" featurekey="symbol1" fill="#343a93" transform="matrix(0.7777777777777778,0,0,0.7777777777777778,6.111111111111111,3.9411111407809782)">
        <g>
            <path fill="none" d="M72.851,58.521c-2.828-8.258-9.91-14.361-18.484-15.927c-2.916-0.532-5.82-0.532-8.735,0   c-8.574,1.566-15.656,7.669-18.484,15.927c0,0,0,0.001-0.001,0.001c-0.865,2.525-1.304,5.158-1.304,7.826   c0,13.319,10.836,24.155,24.155,24.155s24.155-10.836,24.155-24.155c0-2.667-0.438-5.3-1.303-7.825   C72.852,58.523,72.852,58.522,72.851,58.521z"></path>
            <path fill="none" d="M44.375,41.108c-0.064-0.214-0.11-0.431-0.169-0.646c-0.073-0.266-0.146-0.532-0.21-0.801   c-0.096-0.401-0.177-0.805-0.254-1.211c-0.049-0.258-0.102-0.514-0.143-0.773c-0.07-0.445-0.12-0.893-0.167-1.342   c-0.023-0.221-0.056-0.441-0.073-0.663c-0.052-0.671-0.083-1.345-0.083-2.021c0-0.745,0.034-1.487,0.098-2.225   c0.022-0.249,0.066-0.494,0.095-0.742c0.057-0.487,0.109-0.974,0.193-1.456c0.051-0.293,0.125-0.579,0.186-0.869   c0.09-0.431,0.175-0.863,0.287-1.288c0.081-0.307,0.184-0.607,0.276-0.91c0.122-0.401,0.238-0.802,0.378-1.196   c0.11-0.308,0.24-0.608,0.362-0.912c0.152-0.379,0.3-0.76,0.469-1.131c0.138-0.303,0.294-0.597,0.445-0.895   c0.182-0.36,0.36-0.721,0.559-1.073c0.166-0.294,0.347-0.578,0.525-0.866c0.211-0.342,0.42-0.683,0.647-1.015   c0.192-0.281,0.398-0.553,0.601-0.827c0.165-0.222,0.315-0.453,0.487-0.67c-4.589-5.143-11.117-8.078-18.022-8.078   c-13.32,0-24.156,10.836-24.156,24.155c0,11.428,7.981,21.245,19.08,23.614C28.855,49.084,35.865,42.996,44.375,41.108z"></path>
            <path fill="none" d="M69.138,9.496c-7.14,0-13.878,3.139-18.485,8.612c-3.657,4.344-5.671,9.864-5.671,15.543   c0,0.638,0.029,1.274,0.079,1.908c0.017,0.211,0.049,0.421,0.071,0.631c0.044,0.42,0.09,0.841,0.156,1.258   c0.04,0.25,0.094,0.498,0.142,0.746c0.072,0.375,0.145,0.75,0.235,1.121c0.063,0.261,0.138,0.52,0.21,0.779   c0.065,0.233,0.135,0.464,0.207,0.695c2.87-0.439,5.727-0.397,8.593,0.126c8.935,1.633,16.358,7.866,19.539,16.35   c11.099-2.369,19.08-12.186,19.08-23.614C93.293,20.332,82.457,9.496,69.138,9.496z"></path>
            <path d="M95,33.651C95,19.391,83.399,7.79,69.138,7.79c-7.317,0-14.233,3.084-19.138,8.486C45.096,10.874,38.18,7.79,30.862,7.79   C16.602,7.79,5,19.391,5,33.651c0,12.175,8.472,22.62,20.266,25.222c-0.734,2.427-1.128,4.934-1.128,7.476   C24.138,80.609,35.74,92.21,50,92.21c14.26,0,25.862-11.601,25.862-25.862c0-2.541-0.393-5.048-1.127-7.476   C86.528,56.271,95,45.826,95,33.651z M6.707,33.651c0-13.319,10.836-24.155,24.156-24.155c6.905,0,13.433,2.935,18.022,8.078   c-0.172,0.217-0.322,0.448-0.487,0.67c-0.204,0.274-0.409,0.546-0.601,0.827c-0.227,0.332-0.436,0.673-0.647,1.015   c-0.177,0.288-0.359,0.572-0.525,0.866c-0.198,0.352-0.377,0.713-0.559,1.073c-0.15,0.298-0.306,0.592-0.445,0.895   c-0.17,0.372-0.318,0.752-0.469,1.131c-0.122,0.304-0.252,0.604-0.362,0.912c-0.141,0.394-0.257,0.796-0.378,1.196   c-0.092,0.304-0.195,0.603-0.276,0.91c-0.112,0.425-0.197,0.857-0.287,1.288c-0.061,0.29-0.135,0.577-0.186,0.869   c-0.084,0.482-0.137,0.969-0.193,1.456c-0.029,0.248-0.073,0.493-0.095,0.742c-0.064,0.738-0.098,1.48-0.098,2.225   c0,0.676,0.031,1.35,0.083,2.021c0.017,0.222,0.05,0.442,0.073,0.663c0.047,0.449,0.097,0.897,0.167,1.342   c0.041,0.259,0.094,0.516,0.143,0.773c0.077,0.405,0.157,0.809,0.254,1.211c0.064,0.268,0.137,0.534,0.21,0.801   c0.059,0.215,0.105,0.432,0.169,0.646c-8.51,1.888-15.52,7.976-18.588,16.157C14.687,54.896,6.707,45.079,6.707,33.651z M50,90.504   c-13.319,0-24.155-10.836-24.155-24.155c0-2.668,0.439-5.301,1.304-7.826c0,0,0-0.001,0.001-0.001   c2.827-8.257,9.91-14.36,18.484-15.927c2.915-0.532,5.819-0.532,8.735,0c8.573,1.566,15.656,7.669,18.484,15.927   c0,0.001,0.001,0.001,0.001,0.002c0.865,2.525,1.303,5.158,1.303,7.825C74.155,79.668,63.319,90.504,50,90.504z M74.214,57.265   c-3.182-8.484-10.604-14.717-19.539-16.35c-2.866-0.523-5.722-0.565-8.593-0.126c-0.072-0.231-0.142-0.462-0.207-0.695   c-0.072-0.259-0.147-0.518-0.21-0.779c-0.09-0.372-0.163-0.746-0.235-1.121c-0.048-0.249-0.102-0.496-0.142-0.746   c-0.066-0.417-0.112-0.838-0.156-1.258c-0.022-0.211-0.055-0.42-0.071-0.631c-0.05-0.633-0.079-1.269-0.079-1.908   c0-5.678,2.014-11.199,5.671-15.543c4.607-5.473,11.345-8.612,18.485-8.612c13.319,0,24.155,10.836,24.155,24.155   C93.293,45.079,85.313,54.896,74.214,57.265z"></path>
        </g>
    </g>
    <g id="SvgjsG1337" featurekey="text1" fill="#513dab" transform="matrix(1,0,0,1,100,43)">
        <path d=""></path>
    </g>
</svg>